<?xml version="1.0" encoding="utf-8"?>
<!-- Svg Vector Icons : http://www.onlinewebfonts.com/icon -->
<!DOCTYPE svg PUBLIC "-//W3C//DTD SVG 1.1//EN" "http://www.w3.org/Graphics/SVG/1.1/DTD/svg11.dtd">
<svg version="1.1" xmlns="http://www.w3.org/2000/svg" xmlns:xlink="http://www.w3.org/1999/xlink" x="0px" y="0px" viewBox="0 0 1000 1000" enable-background="new 0 0 1000 1000" xml:space="preserve">
<metadata> Svg Vector Icons : http://www.onlinewebfonts.com/icon </metadata>
<g><g transform="translate(0.000000,512.000000) scale(0.100000,-0.100000)"><path d="M3930,4337.3L2869.7,3654l1066.1-5.7c585.7-1.9,1542.7-1.9,2128.4,0l1064.2,5.7l-1064.2,685.2c-585.7,375.2-1066.1,683.3-1069.9,681.4C4992.3,5020.6,4513.8,4712.4,3930,4337.3z"/><path d="M2084.9,3458.7c-7.7-5.7-13.4-453.6-13.4-995.3v-981.9H5000h2928.5l-3.8,991.5l-5.7,989.6l-2911.3,5.7C3407.5,3470.2,2090.6,3466.4,2084.9,3458.7z M3394.1,2989.8c185.7-80.4,222-340.7,61.2-446l-59.3-42.1l67-23c101.4-36.4,143.6-120.6,135.9-264.1c-5.7-93.8-17.2-130.2-53.6-170.4c-99.5-105.3-132.1-112.9-558.9-118.7l-398.1-7.7v558.9v558.9l369.4-7.7C3233.3,3022.3,3342.4,3012.7,3394.1,2989.8z M4640.2,2476.8c114.8-300.5,206.7-547.4,206.7-549.3c0-3.8-80.4-5.7-178-5.7h-178l-28.7,91.9l-26.8,90h-191.4h-189.5l-28.7-90l-28.7-91.9h-168.4c-91.9,0-168.4,5.7-168.4,13.4c0,7.7,91.9,256.5,202.9,555.1l204.8,543.6l183.8-5.7l183.8-5.7L4640.2,2476.8z M5478.5,2729.5l201-294.8l9.6,294.8l9.6,292.9l158.9,5.7l157,5.7v-557v-555.1h-160.8H5691l-197.1,290.9l-197.1,290.9l-5.7-290.9l-5.7-290.9h-160.8h-162.7v555.1v557l157-5.7l158.9-5.7L5478.5,2729.5z M6588.7,2823.3l9.6-199.1l172.3,202.9l172.3,202.9l216.3,1.9c116.8,0,214.4-5.7,214.4-15.3c0-7.7-61.3-74.7-135.9-147.4c-74.7-74.6-158.9-164.6-189.5-201l-53.6-68.9l51.7-84.2c28.7-47.9,122.5-201,208.6-338.8l155-254.6h-208.6h-210.5l-88,176.1c-49.8,97.6-101.5,197.1-118.7,222l-28.7,44l-84.2-82.3c-82.3-80.4-82.3-80.4-82.3-220.1v-139.7h-172.3h-172.3v555.1v557l168.4-5.7l166.5-5.7L6588.7,2823.3z"/><path d="M2932.8,2696.9v-105.3h101.4c116.8,0,185.7,38.3,185.7,105.3s-68.9,105.3-185.7,105.3h-101.4V2696.9z"/><path d="M2932.8,2266.3v-114.8h95.7c53.6,0,126.3,13.4,162.7,26.8c55.5,23,67,38.3,67,86.1c0,82.3-59.3,116.8-204.8,116.8h-120.6V2266.3z"/><path d="M4182.7,2534.2l-59.3-191.4h122.5h120.6l-28.7,91.9c-15.3,49.8-40.2,135.9-57.4,191.4c-15.3,53.6-32.5,99.5-34.5,99.5C4243.9,2725.6,4215.2,2639.5,4182.7,2534.2z"/><path d="M1020.7,2463.4c-488.1-313.9-880.5-578-893.9-602.9c-19.1-32.5-24.9-178-26.8-566.6V769.5l55.5-55.5c30.6-30.6,76.6-55.5,101.5-57.4c24.9,0,202.9,0,398.1,0c195.2,1.9,377.1-1.9,407.7-9.6l51.7-11.5V294.8c0-333.1,1.9-344.5,45.9-396.2c40.2-45.9,61.3-53.6,181.8-59.3l135.9-7.7v-1605.9v-1605.9h-122.5c-103.4,0-134-7.7-178-45.9c-53.6-45.9-53.6-49.8-63.2-321.6l-9.6-273.7l-453.6-9.6c-574.2-11.5-539.8,9.6-547.4-336.9c-7.7-269.9,9.6-338.8,93.8-380.9c80.4-42.1,9524.4-42.1,9604.8-1.9c80.4,42.1,97.6,105.3,97.6,348.3c0,233.5-21,312-93.8,352.2c-22.9,11.5-191.4,19.1-411.5,19.1h-375.1v269.9v269.9l-55.5,55.5c-49.8,47.9-70.8,55.5-162.7,55.5h-107.2v1607.8v1607.8h86.1c103.4,0,183.7,36.4,216.3,99.5c15.3,28.7,24.9,162.7,28.7,379l3.8,335l248.8,3.8c137.8,1.9,308.2,3.8,379,3.8c118.7,1.9,135.9,7.7,187.6,57.4l55.5,55.5v524.5c-1.9,382.8-7.7,534-24.9,566.6c-19.1,34.5-1665.2,1114-1749.5,1146.5c-19.1,7.7-24.9-151.2-24.9-754.1c0-497.7-7.7-786.7-21-825c-44-128.2,197.1-118.7-3079.7-118.7c-2656.7,0-2972.5,3.8-3014.6,30.6c-24.9,15.3-51.7,44-61.3,61.2c-7.7,17.2-19.1,390.5-24.9,826.9l-9.6,794.3L1020.7,2463.4z M4121.4,285.2c5.7-199.1,11.5-365.6,13.4-369.4c1.9-1.9,32.5-21.1,67-42.1c42.1-26.8,95.7-38.3,172.3-38.3h109.1v-1607.8v-1607.8h-126.3c-112.9,0-130.2-5.7-181.8-55.5l-55.5-55.5v-269.9V-4031h-553.2h-555.1l-5.7,279.4c-5.7,279.5-5.7,279.5-59.3,325.4c-42.1,36.4-74.7,45.9-158.9,45.9H2684v1607.8v1607.8h97.6c86.1,0,105.3,7.7,162.7,65.1l65.1,65.1v333.1c0,183.7,5.7,338.8,11.5,346.4c7.7,5.7,254.6,9.6,551.3,7.7l537.9-3.8L4121.4,285.2z M7124.6,304.4c5.7-189.5,17.2-359.8,26.8-379c26.8-55.5,116.7-90,231.6-90h105.3v-1607.8v-1607.8H7362c-112.9,0-130.2-5.7-181.8-55.5l-55.5-55.5v-269.9V-4031h-555.1h-555.1v269.9v269.9l-55.5,55.5c-49.8,47.9-70.8,55.5-162.7,55.5h-107.2v1607.8v1607.8h86.1c107.2,0,185.7,38.3,216.3,105.3c15.3,32.5,23,162.7,23,373.2c0,319.6,0,323.5,44,331.1c23,3.8,269.9,5.7,549.3,5.7l507.2-1.9L7124.6,304.4z M1937.5-1772.4v-1607.8h-86.1h-86.1v1607.8v1607.8h86.1h86.1V-1772.4z M2396.9-1772.4v-1607.8h-86.1h-86.1v1607.8v1607.8h86.1h86.1V-1772.4z M4942.6-1772.4v-1607.8h-86.1h-86.1v1607.8v1607.8h86.1h86.1V-1772.4z M5402-1772.4v-1607.8h-86.1h-86.1v1607.8v1607.8h86.1h86.1V-1772.4z M7947.7-1772.4v-1607.8h-86.1h-86.1v1607.8v1607.8h86.1h86.1V-1772.4z M8407-1772.4v-1607.8h-86.1h-86.1v1607.8v1607.8h86.1h86.1V-1772.4z"/></g></g>
</svg>